<svg xmlns="http://www.w3.org/2000/svg" viewBox="0 0 1920 1080" preserveAspectRatio="xMidYMid" style="shape-rendering: auto; display: block; background: rgb(255, 255, 255);" width="1920" height="1080" xmlns:xlink="http://www.w3.org/1999/xlink"><g><g><path d="M-274.29 -260.57A137.14 137.14 0 0 1 0 -260.57A137.14 137.14 0 0 1 274.29 -260.57A137.14 137.14 0 0 1 548.57 -260.57A137.14 137.14 0 0 1 822.86 -260.57A137.14 137.14 0 0 1 1097.14 -260.57A137.14 137.14 0 0 1 1371.43 -260.57A137.14 137.14 0 0 1 1645.71 -260.57A137.14 137.14 0 0 1 1920 -260.57A137.14 137.14 0 0 1 2194.29 -260.57L-274.29 -260.57" fill="#d1d1d1">
<animateTransform attributeName="transform" type="translate" dur="16.666666666666664s" begin="0s" repeatCount="indefinite" calcMode="spline" keySplines="0.3 0 0.7 1;0.3 0 0.7 1;0.3 0 0.7 1;0.3 0 0.7 1" keyTimes="0;0.25;0.5;0.75;1" values="0 0;137.14285714285714 0;0 0;-137.14285714285714 0;0 0"></animateTransform>
</path>
<animateTransform attributeName="transform" type="translate" dur="5.5555555555555545s" begin="0s" repeatCount="indefinite" calcMode="spline" keySplines="0.5 0 0.5 1;0.5 0 0.5 1;0.5 0 0.5 1;0.5 0 0.5 1" keyTimes="0;0.25;0.5;0.75;1" values="0 0;0 13.714285714285714;0 0;0 -13.714285714285714;0 0"></animateTransform>
</g><g><path d="M-137.14 -205.71A137.14 137.14 0 0 1 137.14 -205.71A137.14 137.14 0 0 1 411.43 -205.71A137.14 137.14 0 0 1 685.71 -205.71A137.14 137.14 0 0 1 960 -205.71A137.14 137.14 0 0 1 1234.29 -205.71A137.14 137.14 0 0 1 1508.57 -205.71A137.14 137.14 0 0 1 1782.86 -205.71A137.14 137.14 0 0 1 2057.14 -205.71A137.14 137.14 0 0 1 2331.43 -205.71L-137.14 -205.71" fill="#cdcbce">
<animateTransform attributeName="transform" type="translate" dur="16.666666666666664s" begin="-0.5555555555555555s" repeatCount="indefinite" calcMode="spline" keySplines="0.3 0 0.7 1;0.3 0 0.7 1;0.3 0 0.7 1;0.3 0 0.7 1" keyTimes="0;0.25;0.5;0.75;1" values="0 0;137.14285714285714 0;0 0;-137.14285714285714 0;0 0"></animateTransform>
</path>
<animateTransform attributeName="transform" type="translate" dur="5.5555555555555545s" begin="-0.5555555555555555s" repeatCount="indefinite" calcMode="spline" keySplines="0.5 0 0.5 1;0.5 0 0.5 1;0.5 0 0.5 1;0.5 0 0.5 1" keyTimes="0;0.25;0.5;0.75;1" values="0 0;0 13.714285714285714;0 0;0 -13.714285714285714;0 0"></animateTransform>
</g><g><path d="M-274.29 -150.86A137.14 137.14 0 0 1 0 -150.86A137.14 137.14 0 0 1 274.29 -150.86A137.14 137.14 0 0 1 548.57 -150.86A137.14 137.14 0 0 1 822.86 -150.86A137.14 137.14 0 0 1 1097.14 -150.86A137.14 137.14 0 0 1 1371.43 -150.86A137.14 137.14 0 0 1 1645.71 -150.86A137.14 137.14 0 0 1 1920 -150.86A137.14 137.14 0 0 1 2194.29 -150.86L-274.29 -150.86" fill="#c8c5cc">
<animateTransform attributeName="transform" type="translate" dur="16.666666666666664s" begin="-1.111111111111111s" repeatCount="indefinite" calcMode="spline" keySplines="0.3 0 0.7 1;0.3 0 0.7 1;0.3 0 0.7 1;0.3 0 0.7 1" keyTimes="0;0.25;0.5;0.75;1" values="0 0;137.14285714285714 0;0 0;-137.14285714285714 0;0 0"></animateTransform>
</path>
<animateTransform attributeName="transform" type="translate" dur="5.5555555555555545s" begin="-1.111111111111111s" repeatCount="indefinite" calcMode="spline" keySplines="0.5 0 0.5 1;0.5 0 0.5 1;0.5 0 0.5 1;0.5 0 0.5 1" keyTimes="0;0.25;0.5;0.75;1" values="0 0;0 13.714285714285714;0 0;0 -13.714285714285714;0 0"></animateTransform>
</g><g><path d="M-137.14 -96A137.14 137.14 0 0 1 137.14 -96A137.14 137.14 0 0 1 411.43 -96A137.14 137.14 0 0 1 685.71 -96A137.14 137.14 0 0 1 960 -96A137.14 137.14 0 0 1 1234.29 -96A137.14 137.14 0 0 1 1508.57 -96A137.14 137.14 0 0 1 1782.86 -96A137.14 137.14 0 0 1 2057.14 -96A137.14 137.14 0 0 1 2331.43 -96L-137.14 -96" fill="#c4c0c9">
<animateTransform attributeName="transform" type="translate" dur="16.666666666666664s" begin="-1.6666666666666665s" repeatCount="indefinite" calcMode="spline" keySplines="0.3 0 0.7 1;0.3 0 0.7 1;0.3 0 0.7 1;0.3 0 0.7 1" keyTimes="0;0.25;0.5;0.75;1" values="0 0;137.14285714285714 0;0 0;-137.14285714285714 0;0 0"></animateTransform>
</path>
<animateTransform attributeName="transform" type="translate" dur="5.5555555555555545s" begin="-1.6666666666666665s" repeatCount="indefinite" calcMode="spline" keySplines="0.5 0 0.5 1;0.5 0 0.5 1;0.5 0 0.5 1;0.5 0 0.5 1" keyTimes="0;0.25;0.5;0.75;1" values="0 0;0 13.714285714285714;0 0;0 -13.714285714285714;0 0"></animateTransform>
</g><g><path d="M-274.29 -41.14A137.14 137.14 0 0 1 0 -41.14A137.14 137.14 0 0 1 274.29 -41.14A137.14 137.14 0 0 1 548.57 -41.14A137.14 137.14 0 0 1 822.86 -41.14A137.14 137.14 0 0 1 1097.14 -41.14A137.14 137.14 0 0 1 1371.43 -41.14A137.14 137.14 0 0 1 1645.71 -41.14A137.14 137.14 0 0 1 1920 -41.14A137.14 137.14 0 0 1 2194.29 -41.14L-274.29 -41.14" fill="#bfbac7">
<animateTransform attributeName="transform" type="translate" dur="16.666666666666664s" begin="-2.222222222222222s" repeatCount="indefinite" calcMode="spline" keySplines="0.3 0 0.7 1;0.3 0 0.7 1;0.3 0 0.7 1;0.3 0 0.7 1" keyTimes="0;0.25;0.5;0.75;1" values="0 0;137.14285714285714 0;0 0;-137.14285714285714 0;0 0"></animateTransform>
</path>
<animateTransform attributeName="transform" type="translate" dur="5.5555555555555545s" begin="-2.222222222222222s" repeatCount="indefinite" calcMode="spline" keySplines="0.5 0 0.5 1;0.5 0 0.5 1;0.5 0 0.5 1;0.5 0 0.5 1" keyTimes="0;0.25;0.5;0.75;1" values="0 0;0 13.714285714285714;0 0;0 -13.714285714285714;0 0"></animateTransform>
</g><g><path d="M-137.14 13.71A137.14 137.14 0 0 1 137.14 13.71A137.14 137.14 0 0 1 411.43 13.71A137.14 137.14 0 0 1 685.71 13.71A137.14 137.14 0 0 1 960 13.71A137.14 137.14 0 0 1 1234.29 13.71A137.14 137.14 0 0 1 1508.57 13.71A137.14 137.14 0 0 1 1782.86 13.71A137.14 137.14 0 0 1 2057.14 13.71A137.14 137.14 0 0 1 2331.43 13.71L-137.14 13.71" fill="#bbb4c4">
<animateTransform attributeName="transform" type="translate" dur="16.666666666666664s" begin="-2.7777777777777772s" repeatCount="indefinite" calcMode="spline" keySplines="0.3 0 0.7 1;0.3 0 0.7 1;0.3 0 0.7 1;0.3 0 0.7 1" keyTimes="0;0.25;0.5;0.75;1" values="0 0;137.14285714285714 0;0 0;-137.14285714285714 0;0 0"></animateTransform>
</path>
<animateTransform attributeName="transform" type="translate" dur="5.5555555555555545s" begin="-2.7777777777777772s" repeatCount="indefinite" calcMode="spline" keySplines="0.5 0 0.5 1;0.5 0 0.5 1;0.5 0 0.5 1;0.5 0 0.5 1" keyTimes="0;0.25;0.5;0.75;1" values="0 0;0 13.714285714285714;0 0;0 -13.714285714285714;0 0"></animateTransform>
</g><g><path d="M-274.29 68.57A137.14 137.14 0 0 1 0 68.57A137.14 137.14 0 0 1 274.29 68.57A137.14 137.14 0 0 1 548.57 68.57A137.14 137.14 0 0 1 822.86 68.57A137.14 137.14 0 0 1 1097.14 68.57A137.14 137.14 0 0 1 1371.43 68.57A137.14 137.14 0 0 1 1645.71 68.57A137.14 137.14 0 0 1 1920 68.57A137.14 137.14 0 0 1 2194.29 68.57L-274.29 68.57" fill="#b7aec2">
<animateTransform attributeName="transform" type="translate" dur="16.666666666666664s" begin="-3.333333333333333s" repeatCount="indefinite" calcMode="spline" keySplines="0.3 0 0.7 1;0.3 0 0.7 1;0.3 0 0.7 1;0.3 0 0.7 1" keyTimes="0;0.25;0.5;0.75;1" values="0 0;137.14285714285714 0;0 0;-137.14285714285714 0;0 0"></animateTransform>
</path>
<animateTransform attributeName="transform" type="translate" dur="5.5555555555555545s" begin="-3.333333333333333s" repeatCount="indefinite" calcMode="spline" keySplines="0.5 0 0.5 1;0.5 0 0.5 1;0.5 0 0.5 1;0.5 0 0.5 1" keyTimes="0;0.25;0.5;0.75;1" values="0 0;0 13.714285714285714;0 0;0 -13.714285714285714;0 0"></animateTransform>
</g><g><path d="M-137.14 123.43A137.14 137.14 0 0 1 137.14 123.43A137.14 137.14 0 0 1 411.43 123.43A137.14 137.14 0 0 1 685.71 123.43A137.14 137.14 0 0 1 960 123.43A137.14 137.14 0 0 1 1234.29 123.43A137.14 137.14 0 0 1 1508.57 123.43A137.14 137.14 0 0 1 1782.86 123.43A137.14 137.14 0 0 1 2057.14 123.43A137.14 137.14 0 0 1 2331.43 123.43L-137.14 123.43" fill="#b2a8bf">
<animateTransform attributeName="transform" type="translate" dur="16.666666666666664s" begin="-3.8888888888888884s" repeatCount="indefinite" calcMode="spline" keySplines="0.3 0 0.7 1;0.3 0 0.7 1;0.3 0 0.7 1;0.3 0 0.7 1" keyTimes="0;0.25;0.5;0.75;1" values="0 0;137.14285714285714 0;0 0;-137.14285714285714 0;0 0"></animateTransform>
</path>
<animateTransform attributeName="transform" type="translate" dur="5.5555555555555545s" begin="-3.8888888888888884s" repeatCount="indefinite" calcMode="spline" keySplines="0.5 0 0.5 1;0.5 0 0.5 1;0.5 0 0.5 1;0.5 0 0.5 1" keyTimes="0;0.25;0.5;0.75;1" values="0 0;0 13.714285714285714;0 0;0 -13.714285714285714;0 0"></animateTransform>
</g><g><path d="M-274.29 178.29A137.14 137.14 0 0 1 0 178.29A137.14 137.14 0 0 1 274.29 178.29A137.14 137.14 0 0 1 548.57 178.29A137.14 137.14 0 0 1 822.86 178.29A137.14 137.14 0 0 1 1097.14 178.29A137.14 137.14 0 0 1 1371.43 178.29A137.14 137.14 0 0 1 1645.71 178.29A137.14 137.14 0 0 1 1920 178.29A137.14 137.14 0 0 1 2194.29 178.29L-274.29 178.29" fill="#aea2bd">
<animateTransform attributeName="transform" type="translate" dur="16.666666666666664s" begin="-4.444444444444444s" repeatCount="indefinite" calcMode="spline" keySplines="0.3 0 0.7 1;0.3 0 0.7 1;0.3 0 0.7 1;0.3 0 0.7 1" keyTimes="0;0.25;0.5;0.75;1" values="0 0;137.14285714285714 0;0 0;-137.14285714285714 0;0 0"></animateTransform>
</path>
<animateTransform attributeName="transform" type="translate" dur="5.5555555555555545s" begin="-4.444444444444444s" repeatCount="indefinite" calcMode="spline" keySplines="0.5 0 0.5 1;0.5 0 0.5 1;0.5 0 0.5 1;0.5 0 0.5 1" keyTimes="0;0.25;0.5;0.75;1" values="0 0;0 13.714285714285714;0 0;0 -13.714285714285714;0 0"></animateTransform>
</g><g><path d="M-137.14 233.14A137.14 137.14 0 0 1 137.14 233.14A137.14 137.14 0 0 1 411.43 233.14A137.14 137.14 0 0 1 685.71 233.14A137.14 137.14 0 0 1 960 233.14A137.14 137.14 0 0 1 1234.29 233.14A137.14 137.14 0 0 1 1508.57 233.14A137.14 137.14 0 0 1 1782.86 233.14A137.14 137.14 0 0 1 2057.14 233.14A137.14 137.14 0 0 1 2331.43 233.14L-137.14 233.14" fill="#a99dba">
<animateTransform attributeName="transform" type="translate" dur="16.666666666666664s" begin="-4.999999999999999s" repeatCount="indefinite" calcMode="spline" keySplines="0.3 0 0.7 1;0.3 0 0.7 1;0.3 0 0.7 1;0.3 0 0.7 1" keyTimes="0;0.25;0.5;0.75;1" values="0 0;137.14285714285714 0;0 0;-137.14285714285714 0;0 0"></animateTransform>
</path>
<animateTransform attributeName="transform" type="translate" dur="5.5555555555555545s" begin="-4.999999999999999s" repeatCount="indefinite" calcMode="spline" keySplines="0.5 0 0.5 1;0.5 0 0.5 1;0.5 0 0.5 1;0.5 0 0.5 1" keyTimes="0;0.25;0.5;0.75;1" values="0 0;0 13.714285714285714;0 0;0 -13.714285714285714;0 0"></animateTransform>
</g><g><path d="M-274.29 288A137.14 137.14 0 0 1 0 288A137.14 137.14 0 0 1 274.29 288A137.14 137.14 0 0 1 548.57 288A137.14 137.14 0 0 1 822.86 288A137.14 137.14 0 0 1 1097.14 288A137.14 137.14 0 0 1 1371.43 288A137.14 137.14 0 0 1 1645.71 288A137.14 137.14 0 0 1 1920 288A137.14 137.14 0 0 1 2194.29 288L-274.29 288" fill="#a597b8">
<animateTransform attributeName="transform" type="translate" dur="16.666666666666664s" begin="-5.5555555555555545s" repeatCount="indefinite" calcMode="spline" keySplines="0.3 0 0.7 1;0.3 0 0.7 1;0.3 0 0.7 1;0.3 0 0.7 1" keyTimes="0;0.25;0.5;0.75;1" values="0 0;137.14285714285714 0;0 0;-137.14285714285714 0;0 0"></animateTransform>
</path>
<animateTransform attributeName="transform" type="translate" dur="5.5555555555555545s" begin="-5.5555555555555545s" repeatCount="indefinite" calcMode="spline" keySplines="0.5 0 0.5 1;0.5 0 0.5 1;0.5 0 0.5 1;0.5 0 0.5 1" keyTimes="0;0.25;0.5;0.75;1" values="0 0;0 13.714285714285714;0 0;0 -13.714285714285714;0 0"></animateTransform>
</g><g><path d="M-137.14 342.86A137.14 137.14 0 0 1 137.14 342.86A137.14 137.14 0 0 1 411.43 342.86A137.14 137.14 0 0 1 685.71 342.86A137.14 137.14 0 0 1 960 342.86A137.14 137.14 0 0 1 1234.29 342.86A137.14 137.14 0 0 1 1508.57 342.86A137.14 137.14 0 0 1 1782.86 342.86A137.14 137.14 0 0 1 2057.14 342.86A137.14 137.14 0 0 1 2331.43 342.86L-137.14 342.86" fill="#a091b5">
<animateTransform attributeName="transform" type="translate" dur="16.666666666666664s" begin="-6.111111111111111s" repeatCount="indefinite" calcMode="spline" keySplines="0.3 0 0.7 1;0.3 0 0.7 1;0.3 0 0.7 1;0.3 0 0.7 1" keyTimes="0;0.25;0.5;0.75;1" values="0 0;137.14285714285714 0;0 0;-137.14285714285714 0;0 0"></animateTransform>
</path>
<animateTransform attributeName="transform" type="translate" dur="5.5555555555555545s" begin="-6.111111111111111s" repeatCount="indefinite" calcMode="spline" keySplines="0.5 0 0.5 1;0.5 0 0.5 1;0.5 0 0.5 1;0.5 0 0.5 1" keyTimes="0;0.25;0.5;0.75;1" values="0 0;0 13.714285714285714;0 0;0 -13.714285714285714;0 0"></animateTransform>
</g><g><path d="M-274.29 397.71A137.14 137.14 0 0 1 0 397.71A137.14 137.14 0 0 1 274.29 397.71A137.14 137.14 0 0 1 548.57 397.71A137.14 137.14 0 0 1 822.86 397.71A137.14 137.14 0 0 1 1097.14 397.71A137.14 137.14 0 0 1 1371.43 397.71A137.14 137.14 0 0 1 1645.71 397.71A137.14 137.14 0 0 1 1920 397.71A137.14 137.14 0 0 1 2194.29 397.71L-274.29 397.71" fill="#9c8bb3">
<animateTransform attributeName="transform" type="translate" dur="16.666666666666664s" begin="-6.666666666666666s" repeatCount="indefinite" calcMode="spline" keySplines="0.3 0 0.7 1;0.3 0 0.7 1;0.3 0 0.7 1;0.3 0 0.7 1" keyTimes="0;0.25;0.5;0.75;1" values="0 0;137.14285714285714 0;0 0;-137.14285714285714 0;0 0"></animateTransform>
</path>
<animateTransform attributeName="transform" type="translate" dur="5.5555555555555545s" begin="-6.666666666666666s" repeatCount="indefinite" calcMode="spline" keySplines="0.5 0 0.5 1;0.5 0 0.5 1;0.5 0 0.5 1;0.5 0 0.5 1" keyTimes="0;0.25;0.5;0.75;1" values="0 0;0 13.714285714285714;0 0;0 -13.714285714285714;0 0"></animateTransform>
</g><g><path d="M-137.14 452.57A137.14 137.14 0 0 1 137.14 452.57A137.14 137.14 0 0 1 411.43 452.57A137.14 137.14 0 0 1 685.71 452.57A137.14 137.14 0 0 1 960 452.57A137.14 137.14 0 0 1 1234.29 452.57A137.14 137.14 0 0 1 1508.57 452.57A137.14 137.14 0 0 1 1782.86 452.57A137.14 137.14 0 0 1 2057.14 452.57A137.14 137.14 0 0 1 2331.43 452.57L-137.14 452.57" fill="#9885b0">
<animateTransform attributeName="transform" type="translate" dur="16.666666666666664s" begin="-7.2222222222222205s" repeatCount="indefinite" calcMode="spline" keySplines="0.3 0 0.7 1;0.3 0 0.7 1;0.3 0 0.7 1;0.3 0 0.7 1" keyTimes="0;0.25;0.5;0.75;1" values="0 0;137.14285714285714 0;0 0;-137.14285714285714 0;0 0"></animateTransform>
</path>
<animateTransform attributeName="transform" type="translate" dur="5.5555555555555545s" begin="-7.2222222222222205s" repeatCount="indefinite" calcMode="spline" keySplines="0.5 0 0.5 1;0.5 0 0.5 1;0.5 0 0.5 1;0.5 0 0.5 1" keyTimes="0;0.25;0.5;0.75;1" values="0 0;0 13.714285714285714;0 0;0 -13.714285714285714;0 0"></animateTransform>
</g><g><path d="M-274.29 507.43A137.14 137.14 0 0 1 0 507.43A137.14 137.14 0 0 1 274.29 507.43A137.14 137.14 0 0 1 548.57 507.43A137.14 137.14 0 0 1 822.86 507.43A137.14 137.14 0 0 1 1097.14 507.43A137.14 137.14 0 0 1 1371.43 507.43A137.14 137.14 0 0 1 1645.71 507.43A137.14 137.14 0 0 1 1920 507.43A137.14 137.14 0 0 1 2194.29 507.43L-274.29 507.43" fill="#937fae">
<animateTransform attributeName="transform" type="translate" dur="16.666666666666664s" begin="-7.777777777777777s" repeatCount="indefinite" calcMode="spline" keySplines="0.3 0 0.7 1;0.3 0 0.7 1;0.3 0 0.7 1;0.3 0 0.7 1" keyTimes="0;0.25;0.5;0.75;1" values="0 0;137.14285714285714 0;0 0;-137.14285714285714 0;0 0"></animateTransform>
</path>
<animateTransform attributeName="transform" type="translate" dur="5.5555555555555545s" begin="-7.777777777777777s" repeatCount="indefinite" calcMode="spline" keySplines="0.5 0 0.5 1;0.5 0 0.5 1;0.5 0 0.5 1;0.5 0 0.5 1" keyTimes="0;0.25;0.5;0.75;1" values="0 0;0 13.714285714285714;0 0;0 -13.714285714285714;0 0"></animateTransform>
</g><g><path d="M-137.14 562.29A137.14 137.14 0 0 1 137.14 562.29A137.14 137.14 0 0 1 411.43 562.29A137.14 137.14 0 0 1 685.71 562.29A137.14 137.14 0 0 1 960 562.29A137.14 137.14 0 0 1 1234.29 562.29A137.14 137.14 0 0 1 1508.57 562.29A137.14 137.14 0 0 1 1782.86 562.29A137.14 137.14 0 0 1 2057.14 562.29A137.14 137.14 0 0 1 2331.43 562.29L-137.14 562.29" fill="#8f7aab">
<animateTransform attributeName="transform" type="translate" dur="16.666666666666664s" begin="-8.333333333333332s" repeatCount="indefinite" calcMode="spline" keySplines="0.3 0 0.7 1;0.3 0 0.7 1;0.3 0 0.7 1;0.3 0 0.7 1" keyTimes="0;0.25;0.5;0.75;1" values="0 0;137.14285714285714 0;0 0;-137.14285714285714 0;0 0"></animateTransform>
</path>
<animateTransform attributeName="transform" type="translate" dur="5.5555555555555545s" begin="-8.333333333333332s" repeatCount="indefinite" calcMode="spline" keySplines="0.5 0 0.5 1;0.5 0 0.5 1;0.5 0 0.5 1;0.5 0 0.5 1" keyTimes="0;0.25;0.5;0.75;1" values="0 0;0 13.714285714285714;0 0;0 -13.714285714285714;0 0"></animateTransform>
</g><g><path d="M-274.29 617.14A137.14 137.14 0 0 1 0 617.14A137.14 137.14 0 0 1 274.29 617.14A137.14 137.14 0 0 1 548.57 617.14A137.14 137.14 0 0 1 822.86 617.14A137.14 137.14 0 0 1 1097.14 617.14A137.14 137.14 0 0 1 1371.43 617.14A137.14 137.14 0 0 1 1645.71 617.14A137.14 137.14 0 0 1 1920 617.14A137.14 137.14 0 0 1 2194.29 617.14L-274.29 617.14" fill="#8a74a9">
<animateTransform attributeName="transform" type="translate" dur="16.666666666666664s" begin="-8.888888888888888s" repeatCount="indefinite" calcMode="spline" keySplines="0.3 0 0.7 1;0.3 0 0.7 1;0.3 0 0.7 1;0.3 0 0.7 1" keyTimes="0;0.25;0.5;0.75;1" values="0 0;137.14285714285714 0;0 0;-137.14285714285714 0;0 0"></animateTransform>
</path>
<animateTransform attributeName="transform" type="translate" dur="5.5555555555555545s" begin="-8.888888888888888s" repeatCount="indefinite" calcMode="spline" keySplines="0.5 0 0.5 1;0.5 0 0.5 1;0.5 0 0.5 1;0.5 0 0.5 1" keyTimes="0;0.25;0.5;0.75;1" values="0 0;0 13.714285714285714;0 0;0 -13.714285714285714;0 0"></animateTransform>
</g><g><path d="M-137.14 672A137.14 137.14 0 0 1 137.14 672A137.14 137.14 0 0 1 411.43 672A137.14 137.14 0 0 1 685.71 672A137.14 137.14 0 0 1 960 672A137.14 137.14 0 0 1 1234.29 672A137.14 137.14 0 0 1 1508.57 672A137.14 137.14 0 0 1 1782.86 672A137.14 137.14 0 0 1 2057.14 672A137.14 137.14 0 0 1 2331.43 672L-137.14 672" fill="#866ea6">
<animateTransform attributeName="transform" type="translate" dur="16.666666666666664s" begin="-9.444444444444445s" repeatCount="indefinite" calcMode="spline" keySplines="0.3 0 0.7 1;0.3 0 0.7 1;0.3 0 0.7 1;0.3 0 0.7 1" keyTimes="0;0.25;0.5;0.75;1" values="0 0;137.14285714285714 0;0 0;-137.14285714285714 0;0 0"></animateTransform>
</path>
<animateTransform attributeName="transform" type="translate" dur="5.5555555555555545s" begin="-9.444444444444445s" repeatCount="indefinite" calcMode="spline" keySplines="0.5 0 0.5 1;0.5 0 0.5 1;0.5 0 0.5 1;0.5 0 0.5 1" keyTimes="0;0.25;0.5;0.75;1" values="0 0;0 13.714285714285714;0 0;0 -13.714285714285714;0 0"></animateTransform>
</g><g><path d="M-274.29 726.86A137.14 137.14 0 0 1 0 726.86A137.14 137.14 0 0 1 274.29 726.86A137.14 137.14 0 0 1 548.57 726.86A137.14 137.14 0 0 1 822.86 726.86A137.14 137.14 0 0 1 1097.14 726.86A137.14 137.14 0 0 1 1371.43 726.86A137.14 137.14 0 0 1 1645.71 726.86A137.14 137.14 0 0 1 1920 726.86A137.14 137.14 0 0 1 2194.29 726.86L-274.29 726.86" fill="#8268a4">
<animateTransform attributeName="transform" type="translate" dur="16.666666666666664s" begin="-9.999999999999998s" repeatCount="indefinite" calcMode="spline" keySplines="0.3 0 0.7 1;0.3 0 0.7 1;0.3 0 0.7 1;0.3 0 0.7 1" keyTimes="0;0.25;0.5;0.75;1" values="0 0;137.14285714285714 0;0 0;-137.14285714285714 0;0 0"></animateTransform>
</path>
<animateTransform attributeName="transform" type="translate" dur="5.5555555555555545s" begin="-9.999999999999998s" repeatCount="indefinite" calcMode="spline" keySplines="0.5 0 0.5 1;0.5 0 0.5 1;0.5 0 0.5 1;0.5 0 0.5 1" keyTimes="0;0.25;0.5;0.75;1" values="0 0;0 13.714285714285714;0 0;0 -13.714285714285714;0 0"></animateTransform>
</g><g><path d="M-137.14 781.71A137.14 137.14 0 0 1 137.14 781.71A137.14 137.14 0 0 1 411.43 781.71A137.14 137.14 0 0 1 685.71 781.71A137.14 137.14 0 0 1 960 781.71A137.14 137.14 0 0 1 1234.29 781.71A137.14 137.14 0 0 1 1508.57 781.71A137.14 137.14 0 0 1 1782.86 781.71A137.14 137.14 0 0 1 2057.14 781.71A137.14 137.14 0 0 1 2331.43 781.71L-137.14 781.71" fill="#7d62a1">
<animateTransform attributeName="transform" type="translate" dur="16.666666666666664s" begin="-10.555555555555554s" repeatCount="indefinite" calcMode="spline" keySplines="0.3 0 0.7 1;0.3 0 0.7 1;0.3 0 0.7 1;0.3 0 0.7 1" keyTimes="0;0.25;0.5;0.75;1" values="0 0;137.14285714285714 0;0 0;-137.14285714285714 0;0 0"></animateTransform>
</path>
<animateTransform attributeName="transform" type="translate" dur="5.5555555555555545s" begin="-10.555555555555554s" repeatCount="indefinite" calcMode="spline" keySplines="0.5 0 0.5 1;0.5 0 0.5 1;0.5 0 0.5 1;0.5 0 0.5 1" keyTimes="0;0.25;0.5;0.75;1" values="0 0;0 13.714285714285714;0 0;0 -13.714285714285714;0 0"></animateTransform>
</g><g><path d="M-274.29 836.57A137.14 137.14 0 0 1 0 836.57A137.14 137.14 0 0 1 274.29 836.57A137.14 137.14 0 0 1 548.57 836.57A137.14 137.14 0 0 1 822.86 836.57A137.14 137.14 0 0 1 1097.14 836.57A137.14 137.14 0 0 1 1371.43 836.57A137.14 137.14 0 0 1 1645.71 836.57A137.14 137.14 0 0 1 1920 836.57A137.14 137.14 0 0 1 2194.29 836.57L-274.29 836.57" fill="#795c9f">
<animateTransform attributeName="transform" type="translate" dur="16.666666666666664s" begin="-11.111111111111109s" repeatCount="indefinite" calcMode="spline" keySplines="0.3 0 0.7 1;0.3 0 0.7 1;0.3 0 0.7 1;0.3 0 0.7 1" keyTimes="0;0.25;0.5;0.75;1" values="0 0;137.14285714285714 0;0 0;-137.14285714285714 0;0 0"></animateTransform>
</path>
<animateTransform attributeName="transform" type="translate" dur="5.5555555555555545s" begin="-11.111111111111109s" repeatCount="indefinite" calcMode="spline" keySplines="0.5 0 0.5 1;0.5 0 0.5 1;0.5 0 0.5 1;0.5 0 0.5 1" keyTimes="0;0.25;0.5;0.75;1" values="0 0;0 13.714285714285714;0 0;0 -13.714285714285714;0 0"></animateTransform>
</g><g><path d="M-137.14 891.43A137.14 137.14 0 0 1 137.14 891.43A137.14 137.14 0 0 1 411.43 891.43A137.14 137.14 0 0 1 685.71 891.43A137.14 137.14 0 0 1 960 891.43A137.14 137.14 0 0 1 1234.29 891.43A137.14 137.14 0 0 1 1508.57 891.43A137.14 137.14 0 0 1 1782.86 891.43A137.14 137.14 0 0 1 2057.14 891.43A137.14 137.14 0 0 1 2331.43 891.43L-137.14 891.43" fill="#74579c">
<animateTransform attributeName="transform" type="translate" dur="16.666666666666664s" begin="-11.666666666666664s" repeatCount="indefinite" calcMode="spline" keySplines="0.3 0 0.7 1;0.3 0 0.7 1;0.3 0 0.7 1;0.3 0 0.7 1" keyTimes="0;0.25;0.5;0.75;1" values="0 0;137.14285714285714 0;0 0;-137.14285714285714 0;0 0"></animateTransform>
</path>
<animateTransform attributeName="transform" type="translate" dur="5.5555555555555545s" begin="-11.666666666666664s" repeatCount="indefinite" calcMode="spline" keySplines="0.5 0 0.5 1;0.5 0 0.5 1;0.5 0 0.5 1;0.5 0 0.5 1" keyTimes="0;0.25;0.5;0.75;1" values="0 0;0 13.714285714285714;0 0;0 -13.714285714285714;0 0"></animateTransform>
</g><g><path d="M-274.29 946.29A137.14 137.14 0 0 1 0 946.29A137.14 137.14 0 0 1 274.29 946.29A137.14 137.14 0 0 1 548.57 946.29A137.14 137.14 0 0 1 822.86 946.29A137.14 137.14 0 0 1 1097.14 946.29A137.14 137.14 0 0 1 1371.43 946.29A137.14 137.14 0 0 1 1645.71 946.29A137.14 137.14 0 0 1 1920 946.29A137.14 137.14 0 0 1 2194.29 946.29L-274.29 946.29" fill="#70519a">
<animateTransform attributeName="transform" type="translate" dur="16.666666666666664s" begin="-12.222222222222221s" repeatCount="indefinite" calcMode="spline" keySplines="0.3 0 0.7 1;0.3 0 0.7 1;0.3 0 0.7 1;0.3 0 0.7 1" keyTimes="0;0.25;0.5;0.75;1" values="0 0;137.14285714285714 0;0 0;-137.14285714285714 0;0 0"></animateTransform>
</path>
<animateTransform attributeName="transform" type="translate" dur="5.5555555555555545s" begin="-12.222222222222221s" repeatCount="indefinite" calcMode="spline" keySplines="0.5 0 0.5 1;0.5 0 0.5 1;0.5 0 0.5 1;0.5 0 0.5 1" keyTimes="0;0.25;0.5;0.75;1" values="0 0;0 13.714285714285714;0 0;0 -13.714285714285714;0 0"></animateTransform>
</g><g><path d="M-137.14 1001.14A137.14 137.14 0 0 1 137.14 1001.14A137.14 137.14 0 0 1 411.43 1001.14A137.14 137.14 0 0 1 685.71 1001.14A137.14 137.14 0 0 1 960 1001.14A137.14 137.14 0 0 1 1234.29 1001.14A137.14 137.14 0 0 1 1508.57 1001.14A137.14 137.14 0 0 1 1782.86 1001.14A137.14 137.14 0 0 1 2057.14 1001.14A137.14 137.14 0 0 1 2331.43 1001.14L-137.14 1001.14" fill="#6b4b97">
<animateTransform attributeName="transform" type="translate" dur="16.666666666666664s" begin="-12.777777777777775s" repeatCount="indefinite" calcMode="spline" keySplines="0.3 0 0.7 1;0.3 0 0.7 1;0.3 0 0.7 1;0.3 0 0.7 1" keyTimes="0;0.25;0.5;0.75;1" values="0 0;137.14285714285714 0;0 0;-137.14285714285714 0;0 0"></animateTransform>
</path>
<animateTransform attributeName="transform" type="translate" dur="5.5555555555555545s" begin="-12.777777777777775s" repeatCount="indefinite" calcMode="spline" keySplines="0.5 0 0.5 1;0.5 0 0.5 1;0.5 0 0.5 1;0.5 0 0.5 1" keyTimes="0;0.25;0.5;0.75;1" values="0 0;0 13.714285714285714;0 0;0 -13.714285714285714;0 0"></animateTransform>
</g><g><path d="M-274.29 1056A137.14 137.14 0 0 1 0 1056A137.14 137.14 0 0 1 274.29 1056A137.14 137.14 0 0 1 548.57 1056A137.14 137.14 0 0 1 822.86 1056A137.14 137.14 0 0 1 1097.14 1056A137.14 137.14 0 0 1 1371.43 1056A137.14 137.14 0 0 1 1645.71 1056A137.14 137.14 0 0 1 1920 1056A137.14 137.14 0 0 1 2194.29 1056L-274.29 1056" fill="#674595">
<animateTransform attributeName="transform" type="translate" dur="16.666666666666664s" begin="-13.333333333333332s" repeatCount="indefinite" calcMode="spline" keySplines="0.3 0 0.7 1;0.3 0 0.7 1;0.3 0 0.7 1;0.3 0 0.7 1" keyTimes="0;0.25;0.5;0.75;1" values="0 0;137.14285714285714 0;0 0;-137.14285714285714 0;0 0"></animateTransform>
</path>
<animateTransform attributeName="transform" type="translate" dur="5.5555555555555545s" begin="-13.333333333333332s" repeatCount="indefinite" calcMode="spline" keySplines="0.5 0 0.5 1;0.5 0 0.5 1;0.5 0 0.5 1;0.5 0 0.5 1" keyTimes="0;0.25;0.5;0.75;1" values="0 0;0 13.714285714285714;0 0;0 -13.714285714285714;0 0"></animateTransform>
</g><g><path d="M-137.14 1110.86A137.14 137.14 0 0 1 137.14 1110.86A137.14 137.14 0 0 1 411.43 1110.86A137.14 137.14 0 0 1 685.71 1110.86A137.14 137.14 0 0 1 960 1110.86A137.14 137.14 0 0 1 1234.29 1110.86A137.14 137.14 0 0 1 1508.57 1110.86A137.14 137.14 0 0 1 1782.86 1110.86A137.14 137.14 0 0 1 2057.14 1110.86A137.14 137.14 0 0 1 2331.43 1110.86L-137.14 1110.86" fill="#633f92">
<animateTransform attributeName="transform" type="translate" dur="16.666666666666664s" begin="-13.888888888888888s" repeatCount="indefinite" calcMode="spline" keySplines="0.3 0 0.7 1;0.3 0 0.7 1;0.3 0 0.7 1;0.3 0 0.7 1" keyTimes="0;0.25;0.5;0.75;1" values="0 0;137.14285714285714 0;0 0;-137.14285714285714 0;0 0"></animateTransform>
</path>
<animateTransform attributeName="transform" type="translate" dur="5.5555555555555545s" begin="-13.888888888888888s" repeatCount="indefinite" calcMode="spline" keySplines="0.5 0 0.5 1;0.5 0 0.5 1;0.5 0 0.5 1;0.5 0 0.5 1" keyTimes="0;0.25;0.5;0.75;1" values="0 0;0 13.714285714285714;0 0;0 -13.714285714285714;0 0"></animateTransform>
</g><g><path d="M-274.29 1165.71A137.14 137.14 0 0 1 0 1165.71A137.14 137.14 0 0 1 274.29 1165.71A137.14 137.14 0 0 1 548.57 1165.71A137.14 137.14 0 0 1 822.86 1165.71A137.14 137.14 0 0 1 1097.14 1165.71A137.14 137.14 0 0 1 1371.43 1165.71A137.14 137.14 0 0 1 1645.71 1165.71A137.14 137.14 0 0 1 1920 1165.71A137.14 137.14 0 0 1 2194.29 1165.71L-274.29 1165.71" fill="#5e3990">
<animateTransform attributeName="transform" type="translate" dur="16.666666666666664s" begin="-14.444444444444441s" repeatCount="indefinite" calcMode="spline" keySplines="0.3 0 0.7 1;0.3 0 0.7 1;0.3 0 0.7 1;0.3 0 0.7 1" keyTimes="0;0.25;0.5;0.75;1" values="0 0;137.14285714285714 0;0 0;-137.14285714285714 0;0 0"></animateTransform>
</path>
<animateTransform attributeName="transform" type="translate" dur="5.5555555555555545s" begin="-14.444444444444441s" repeatCount="indefinite" calcMode="spline" keySplines="0.5 0 0.5 1;0.5 0 0.5 1;0.5 0 0.5 1;0.5 0 0.5 1" keyTimes="0;0.25;0.5;0.75;1" values="0 0;0 13.714285714285714;0 0;0 -13.714285714285714;0 0"></animateTransform>
</g><g><path d="M-137.14 1220.57A137.14 137.14 0 0 1 137.14 1220.57A137.14 137.14 0 0 1 411.43 1220.57A137.14 137.14 0 0 1 685.71 1220.57A137.14 137.14 0 0 1 960 1220.57A137.14 137.14 0 0 1 1234.29 1220.57A137.14 137.14 0 0 1 1508.57 1220.57A137.14 137.14 0 0 1 1782.86 1220.57A137.14 137.14 0 0 1 2057.14 1220.57A137.14 137.14 0 0 1 2331.43 1220.57L-137.14 1220.57" fill="#5a348d">
<animateTransform attributeName="transform" type="translate" dur="16.666666666666664s" begin="-14.999999999999998s" repeatCount="indefinite" calcMode="spline" keySplines="0.3 0 0.7 1;0.3 0 0.7 1;0.3 0 0.7 1;0.3 0 0.7 1" keyTimes="0;0.25;0.5;0.75;1" values="0 0;137.14285714285714 0;0 0;-137.14285714285714 0;0 0"></animateTransform>
</path>
<animateTransform attributeName="transform" type="translate" dur="5.5555555555555545s" begin="-14.999999999999998s" repeatCount="indefinite" calcMode="spline" keySplines="0.5 0 0.5 1;0.5 0 0.5 1;0.5 0 0.5 1;0.5 0 0.5 1" keyTimes="0;0.25;0.5;0.75;1" values="0 0;0 13.714285714285714;0 0;0 -13.714285714285714;0 0"></animateTransform>
</g><g><path d="M-274.29 1275.43A137.14 137.14 0 0 1 0 1275.43A137.14 137.14 0 0 1 274.29 1275.43A137.14 137.14 0 0 1 548.57 1275.43A137.14 137.14 0 0 1 822.86 1275.43A137.14 137.14 0 0 1 1097.14 1275.43A137.14 137.14 0 0 1 1371.43 1275.43A137.14 137.14 0 0 1 1645.71 1275.43A137.14 137.14 0 0 1 1920 1275.43A137.14 137.14 0 0 1 2194.29 1275.43L-274.29 1275.43" fill="#552e8b">
<animateTransform attributeName="transform" type="translate" dur="16.666666666666664s" begin="-15.555555555555554s" repeatCount="indefinite" calcMode="spline" keySplines="0.3 0 0.7 1;0.3 0 0.7 1;0.3 0 0.7 1;0.3 0 0.7 1" keyTimes="0;0.25;0.5;0.75;1" values="0 0;137.14285714285714 0;0 0;-137.14285714285714 0;0 0"></animateTransform>
</path>
<animateTransform attributeName="transform" type="translate" dur="5.5555555555555545s" begin="-15.555555555555554s" repeatCount="indefinite" calcMode="spline" keySplines="0.5 0 0.5 1;0.5 0 0.5 1;0.5 0 0.5 1;0.5 0 0.5 1" keyTimes="0;0.25;0.5;0.75;1" values="0 0;0 13.714285714285714;0 0;0 -13.714285714285714;0 0"></animateTransform>
</g><g><path d="M-137.14 1330.29A137.14 137.14 0 0 1 137.14 1330.29A137.14 137.14 0 0 1 411.43 1330.29A137.14 137.14 0 0 1 685.71 1330.29A137.14 137.14 0 0 1 960 1330.29A137.14 137.14 0 0 1 1234.29 1330.29A137.14 137.14 0 0 1 1508.57 1330.29A137.14 137.14 0 0 1 1782.86 1330.29A137.14 137.14 0 0 1 2057.14 1330.29A137.14 137.14 0 0 1 2331.43 1330.29L-137.14 1330.29" fill="#512888">
<animateTransform attributeName="transform" type="translate" dur="16.666666666666664s" begin="-16.111111111111107s" repeatCount="indefinite" calcMode="spline" keySplines="0.3 0 0.7 1;0.3 0 0.7 1;0.3 0 0.7 1;0.3 0 0.7 1" keyTimes="0;0.25;0.5;0.75;1" values="0 0;137.14285714285714 0;0 0;-137.14285714285714 0;0 0"></animateTransform>
</path>
<animateTransform attributeName="transform" type="translate" dur="5.5555555555555545s" begin="-16.111111111111107s" repeatCount="indefinite" calcMode="spline" keySplines="0.5 0 0.5 1;0.5 0 0.5 1;0.5 0 0.5 1;0.5 0 0.5 1" keyTimes="0;0.25;0.5;0.75;1" values="0 0;0 13.714285714285714;0 0;0 -13.714285714285714;0 0"></animateTransform>
</g><g></g></g><!-- [ldio] generated by https://loading.io --></svg>